<svg width="288" height="78" viewBox="0 0 288 78" fill="none" xmlns="http://www.w3.org/2000/svg">
<path d="M276 0H12C5.37258 0 0 4.47715 0 10V68C0 73.5229 5.37258 78 12 78H276C282.627 78 288 73.5229 288 68V10C288 4.47715 282.627 0 276 0Z" fill="#E0B973"/>
<path d="M59.25 42.875C59.25 39.35 56.2 38.425 53.425 37.775V33.525C54.675 33.675 55.975 34.1 57.25 34.825L58.5 31.75C57.125 30.875 55.3 30.375 53.425 30.225V27.5H50.925V30.275C46.975 30.725 45.05 33 45.05 35.65C45.05 39.225 48.15 40.15 50.925 40.825V45C49.125 44.825 47.325 44.15 46.075 43.225L44.7 46.275C46.075 47.35 48.45 48.125 50.925 48.275V51H53.425V48.2C57.35 47.725 59.25 45.475 59.25 42.875ZM49.075 35.45C49.075 34.625 49.6 33.9 50.925 33.6V37.15C49.825 36.8 49.075 36.325 49.075 35.45ZM53.425 44.9V41.45C54.5 41.825 55.225 42.3 55.225 43.175C55.225 43.975 54.675 44.625 53.425 44.9ZM59.8732 30.5V33.75H63.3732V48H67.4232V30.5H59.8732ZM76.4633 37.075H75.0383L75.3133 33.75H82.6133V30.5H71.9383L71.0383 40.35H75.5133C78.6883 40.35 79.5883 41.25 79.5883 42.625C79.5883 44.05 78.3383 44.9 76.3133 44.9C74.4883 44.9 72.6633 44.325 71.3383 43.325L69.7383 46.425C71.4383 47.625 73.9883 48.3 76.4133 48.3C81.4133 48.3 83.6883 45.6 83.6883 42.5C83.6883 39.4 81.6383 37.075 76.4633 37.075ZM91.2094 37.075H89.7844L90.0594 33.75H97.3594V30.5H86.6844L85.7844 40.35H90.2594C93.4344 40.35 94.3344 41.25 94.3344 42.625C94.3344 44.05 93.0844 44.9 91.0594 44.9C89.2344 44.9 87.4094 44.325 86.0844 43.325L84.4844 46.425C86.1844 47.625 88.7344 48.3 91.1594 48.3C96.1594 48.3 98.4344 45.6 98.4344 42.5C98.4344 39.4 96.3844 37.075 91.2094 37.075ZM128.413 48H132.663L124.838 30.5H120.838L113.038 48H117.188L118.738 44.25H126.863L128.413 48ZM120.038 41.175L122.813 34.475L125.588 41.175H120.038ZM143.095 34.55L139.245 43.7L135.52 34.55H131.495L137.145 48H141.17L146.845 34.55H143.095ZM158.246 34.55V36.275C157.221 34.975 155.671 34.35 153.796 34.35C150.071 34.35 147.071 36.925 147.071 40.85C147.071 44.775 150.071 47.35 153.796 47.35C155.546 47.35 157.021 46.8 158.046 45.675V46.25C158.046 48.675 156.846 49.925 154.096 49.925C152.371 49.925 150.496 49.325 149.346 48.4L147.796 51.2C149.371 52.425 151.846 53.05 154.396 53.05C159.246 53.05 161.946 50.75 161.946 45.75V34.55H158.246ZM154.571 44.15C152.521 44.15 151.021 42.825 151.021 40.85C151.021 38.875 152.521 37.55 154.571 37.55C156.621 37.55 158.096 38.875 158.096 40.85C158.096 42.825 156.621 44.15 154.571 44.15ZM162.95 50.5H166.425L174.675 26.95H171.2L162.95 50.5ZM181.929 34.35C180.104 34.35 178.529 34.975 177.479 36.125V34.55H173.754V48H177.654V41.35C177.654 38.875 179.004 37.725 180.879 37.725C182.604 37.725 183.604 38.725 183.604 40.9V48H187.504V40.3C187.504 36.2 185.104 34.35 181.929 34.35ZM192.989 32.675C194.439 32.675 195.414 31.725 195.414 30.425C195.414 29.225 194.439 28.325 192.989 28.325C191.539 28.325 190.564 29.275 190.564 30.5C190.564 31.725 191.539 32.675 192.989 32.675ZM191.039 48H194.939V34.55H191.039V48ZM208.734 34.55V36.275C207.709 34.975 206.159 34.35 204.284 34.35C200.559 34.35 197.559 36.925 197.559 40.85C197.559 44.775 200.559 47.35 204.284 47.35C206.034 47.35 207.509 46.8 208.534 45.675V46.25C208.534 48.675 207.334 49.925 204.584 49.925C202.859 49.925 200.984 49.325 199.834 48.4L198.284 51.2C199.859 52.425 202.334 53.05 204.884 53.05C209.734 53.05 212.434 50.75 212.434 45.75V34.55H208.734ZM205.059 44.15C203.009 44.15 201.509 42.825 201.509 40.85C201.509 38.875 203.009 37.55 205.059 37.55C207.109 37.55 208.584 38.875 208.584 40.85C208.584 42.825 207.109 44.15 205.059 44.15ZM224.239 34.35C222.514 34.35 221.014 34.9 219.964 35.95V29.45H216.064V48H219.964V41.35C219.964 38.875 221.314 37.725 223.189 37.725C224.914 37.725 225.914 38.725 225.914 40.9V48H229.814V40.3C229.814 36.2 227.414 34.35 224.239 34.35ZM240.974 44.6C240.549 44.925 239.974 45.1 239.399 45.1C238.349 45.1 237.724 44.475 237.724 43.325V37.85H241.074V34.85H237.724V31.575H233.824V34.85H231.749V37.85H233.824V43.375C233.824 46.575 235.674 48.2 238.849 48.2C240.049 48.2 241.224 47.925 242.024 47.35L240.974 44.6Z" fill="white"/>
</svg>
