<svg width="121" height="50" viewBox="0 0 121 50" fill="none" xmlns="http://www.w3.org/2000/svg">
<path d="M111 0H81C75.4772 0 71 4.47715 71 10V40C71 45.5228 75.4772 50 81 50H111C116.523 50 121 45.5228 121 40V10C121 4.47715 116.523 0 111 0Z" fill="#E0B973"/>
<path d="M102.34 24.6918L92.6468 34.3848L89.7598 31.4978L96.5658 24.6918L89.7598 17.8848L92.6468 14.9978L102.34 24.6918Z" fill="white"/>
<path d="M10 50L40 50C45.5228 50 50 45.5228 50 40L50 10C50 4.47715 45.5228 0 40 0L10 0C4.47715 0 0 4.47715 0 10L0 40C0 45.5228 4.47715 50 10 50Z" fill="#E0B973"/>
<path d="M18.6602 24.693L28.3532 15L31.2402 17.887L24.4342 24.693L31.2402 31.5L28.3532 34.387L18.6602 24.693Z" fill="white"/>
</svg>
